<?xml version="1.0" encoding="UTF-8"?>
<svg width="20px" height="20px" viewBox="0 0 20 20" version="1.1" xmlns="http://www.w3.org/2000/svg" xmlns:xlink="http://www.w3.org/1999/xlink">
    <!-- Generator: sketchtool 55.1 (78136) - https://sketchapp.com -->
    <title>ECE743CD-0E87-4F9C-B2B2-BDBCDD28E931</title>
    <desc>Created with sketchtool.</desc>
    <g id="页面1" stroke="none" stroke-width="1" fill="none" fill-rule="evenodd">
        <g id="MT4切图" transform="translate(-1411.000000, -376.000000)" fill-rule="nonzero">
            <g id="ios" transform="translate(1411.000000, 376.000000)">
                <g id="苹果">
                    <rect id="矩形" fill="#000000" opacity="0" x="0" y="0" width="20" height="20"></rect>
                    <path d="M18.3476923,14.6638462 C17.8784615,15.7030769 17.6538462,16.1676923 17.0492308,17.0869231 C16.2061538,18.3715385 15.0176923,19.9684615 13.5446154,19.9830769 C12.2353846,19.9946154 11.8992308,19.1307692 10.1230769,19.1407692 C8.34692307,19.15 7.97692307,19.9976923 6.66692309,19.9855173 C5.19461539,19.9723077 4.06692309,18.5284615 3.22384615,17.2453846 C0.865384609,13.6561538 0.619230762,9.44384615 2.07384615,7.20461539 C3.1076923,5.61307693 4.7376923,4.68153848 6.27153846,4.68153846 C7.83307691,4.68153846 8.81384615,5.5376923 10.1046154,5.5376923 C11.3569231,5.5376923 12.12,4.68076924 13.9246154,4.68076924 C15.2892308,4.68076924 16.7338462,5.42384615 17.7646154,6.70692309 C14.3892308,8.55615385 14.9376923,13.3746154 18.3476923,14.6638462 L18.3476923,14.6638462 Z M12.5553846,3.24615385 C11.8530769,4.14692309 10.6430769,4.84615385 9.47384615,4.80923076 C9.26076924,3.64692307 9.80846154,2.45153846 10.4723077,1.64461539 C11.2046154,0.757692305 12.4569231,0.0769230859 13.5284615,0.00153845703 C13.7092308,1.21692307 13.2115385,2.40461537 12.5553846,3.2476923 L12.5553846,3.24615385 Z" id="形状" fill="#DB3823"></path>
                </g>
            </g>
        </g>
    </g>
</svg>