<svg xmlns="http://www.w3.org/2000/svg" viewBox="0 0 76 64">
	<defs>
		<clipPath id="clip-path">
			<rect width="76" height="64"/>
		</clipPath>
	</defs>
	<g fill="none" stroke="#1378bf" stroke-linecap="round" stroke-linejoin="round" stroke-miterlimit="10" stroke-width="2" clip-path="url(#clip-path)">
		<path d="M47,41V38a3,3,0,0,1,6,0v4.76a40,40,0,0,1-1.35,10.31L49,63H29l-.64-1.61a40,40,0,0,0-3.3-6.48L17.6,43.1a3,3,0,0,1,4.53-4L29,46V20a3,3,0,0,1,6,0V34a3,3,0,0,1,6,0v2a3,3,0,0,1,6,0v5Z"/>
		<path d="M25,27H7a6,6,0,0,1-6-6V7A6,6,0,0,1,7,1H69a6,6,0,0,1,6,6V21a6,6,0,0,1-6,6H39"/>
		<line x1="32" y1="7" x2="32" y2="12"/>
		<line x1="40.07" y1="9.93" x2="36.54" y2="13.46"/>
		<line x1="23.93" y1="9.93" x2="27.46" y2="13.46"/>
	</g>
</svg>