<svg xmlns="http://www.w3.org/2000/svg" viewBox="0 0 80 64">
	<defs>
	<clipPath id="clip-path">
		<rect class="cls-1" width="80" height="64"/></clipPath>
	</defs>
		<g fill="none" stroke="#1378bf" stroke-linecap="round" stroke-linejoin="round" stroke-miterlimit="10" stroke-width="2" clip-path="url(#clip-path)">
			<rect x="27" y="39" width="6" height="6"/>
			<line x1="30" y1="39" x2="30" y2="35"/>
			<line x1="30" y1="49" x2="30" y2="45"/>
			<rect x="47" y="37" width="6" height="7"/>
			<line x1="50" y1="37" x2="50" y2="33"/>
			<line x1="50" y1="51" x2="50" y2="44"/>
			<rect x="37" y="43" width="6" height="6"/>
			<line x1="40" y1="49" x2="40" y2="55"/>
			<line x1="40" y1="37" x2="40" y2="43"/>
			<g>
				<path d="M75,25,69.53,59.62a4,4,0,0,1-4,3.38H14.42a4,4,0,0,1-4-3.38L5,25"/>
				<line x1="13" y1="21" x2="29" y2="1"/>
				<line x1="67" y1="21" x2="51" y2="1"/>
				<path d="M9,21H3a2,2,0,0,0,0,4H77a2,2,0,0,0,0-4H71"/>
				<line x1="18" y1="21" x2="62" y2="21"/>
			</g>
		</g>
</svg>