<?xml version="1.0" encoding="UTF-8"?>
<svg width="20px" height="20px" viewBox="0 0 20 20" version="1.1" xmlns="http://www.w3.org/2000/svg" xmlns:xlink="http://www.w3.org/1999/xlink">
    <!-- Generator: sketchtool 55.1 (78136) - https://sketchapp.com -->
    <title>85C5E341-AAB8-4236-9BC5-548965AF721A</title>
    <desc>Created with sketchtool.</desc>
    <g id="页面1" stroke="none" stroke-width="1" fill="none" fill-rule="evenodd">
        <g id="MT4切图" transform="translate(-1463.000000, -434.000000)" fill-rule="nonzero">
            <g id="android-" transform="translate(1463.000000, 434.000000)">
                <g id="安卓">
                    <rect id="矩形" fill="#000000" opacity="0" x="0" y="0" width="20" height="20"></rect>
                    <path d="M18.8206055,6.77898438 C19.1245378,6.77898438 19.3822201,6.87479167 19.5936523,7.06640625 C19.8050846,7.25802083 19.9108008,7.49257813 19.9108008,7.77007813 L19.9108008,13.6174414 C19.9108008,13.8817253 19.8050846,14.1096745 19.5936523,14.3012891 C19.3822201,14.4929036 19.1245378,14.5887109 18.8206055,14.5887109 L18.4638281,14.5887109 C18.1598958,14.5887109 17.9022135,14.4929036 17.6907813,14.3012891 C17.479349,14.1096745 17.3736328,13.8817253 17.3736328,13.6174414 L17.3736328,7.77007813 C17.3736328,7.4925651 17.479349,7.25800781 17.6907813,7.06640625 C17.9022135,6.87480469 18.1598958,6.77898438 18.4638281,6.77898438 L18.8206055,6.77898438 L18.8206055,6.77898438 Z M2.74529297,6.77898438 C3.04922526,6.77898438 3.30029948,6.87479167 3.49851562,7.06640625 C3.69673177,7.25802083 3.79583984,7.49257813 3.79583984,7.77007813 L3.79583984,13.6174414 C3.79583984,13.8817253 3.69673177,14.1096745 3.49851562,14.3012891 C3.30029948,14.4929036 3.04922526,14.5887109 2.74529297,14.5887109 L2.38849609,14.5887109 C2.0845638,14.5887109 1.82688151,14.4929036 1.61544922,14.3012891 C1.40401693,14.1096745 1.29832031,13.8817253 1.29832031,13.6174414 L1.29832031,7.77007813 C1.29832031,7.4925651 1.40403646,7.25800781 1.61546875,7.06640625 C1.82690104,6.87480469 2.08458333,6.77898438 2.38851562,6.77898438 L2.74529297,6.77898438 Z M13.6868164,2.18037109 C13.924681,2.28610026 14.1724544,2.43145833 14.4301367,2.61644531 C14.687819,2.80143229 14.9355859,3.01946615 15.1734375,3.27054687 C15.4112891,3.5216276 15.6194141,3.79583333 15.7978125,4.09316406 C15.9762109,4.39049479 16.1050521,4.70433594 16.1843359,5.0346875 L4.92566406,5.0346875 C5.13709635,4.33432292 5.47076172,3.7594987 5.92666016,3.31021484 C6.38255859,2.86093099 6.84175781,2.50414063 7.30425781,2.23984375 L6.29335937,0.654101562 C6.26692708,0.627669271 6.2636263,0.578125 6.28345703,0.50546875 C6.30328776,0.4328125 6.37266276,0.356822917 6.49158203,0.2775 C6.59729818,0.185 6.69640625,0.142050781 6.78890625,0.148652344 C6.88140625,0.155253906 6.94086589,0.171777344 6.96728516,0.198222656 L7.99804687,1.82359375 C8.36804687,1.65179687 8.75787109,1.51964844 9.16751953,1.42714844 C9.57716797,1.33464844 10.000026,1.28839844 10.4360937,1.28839844 C11.3346745,1.28839844 12.1737891,1.47340495 12.9534375,1.84341797 L14.0039844,0.198222656 C14.0304167,0.171790365 14.0799674,0.158574219 14.1526367,0.158574219 C14.225306,0.158574219 14.3343294,0.198222656 14.479707,0.277519531 C14.6118424,0.343574219 14.687819,0.403033854 14.7076367,0.455898437 C14.7274544,0.508763021 14.7241536,0.548411458 14.6977344,0.57484375 L13.6868164,2.18037109 Z M8.15658203,3.88503906 C8.32837891,3.88503906 8.47373698,3.82557292 8.59265625,3.70664062 C8.71157552,3.58770833 8.77104167,3.44235026 8.77105469,3.27056641 C8.77106771,3.09878255 8.71160156,2.95342448 8.59265625,2.83449219 C8.47371094,2.7155599 8.32835286,2.65609375 8.15658203,2.65609375 C7.9848112,2.65609375 7.83945312,2.7155599 7.72050781,2.83449219 C7.6015625,2.95342448 7.54210286,3.09878255 7.5421289,3.27056641 C7.54215495,3.44235026 7.60161458,3.58770833 7.72050781,3.70664062 C7.83940104,3.82557292 7.98475911,3.88503906 8.15658203,3.88503906 Z M13.0327148,3.8057422 C13.2044987,3.8057422 13.3498568,3.74628255 13.4687891,3.62736328 C13.5877214,3.50844401 13.647181,3.36307943 13.647168,3.19126953 C13.6471549,3.01945964 13.5876953,2.87410156 13.4687891,2.75519531 C13.3498828,2.63628906 13.2045247,2.57682943 13.0327148,2.5768164 C12.8609049,2.57680339 12.7155404,2.63626302 12.5966211,2.75519531 C12.4777018,2.8741276 12.4182422,3.01948568 12.4182422,3.19126953 C12.4182422,3.36305339 12.4777018,3.50841797 12.5966211,3.62736328 C12.7155404,3.74630859 12.8609049,3.80576823 13.0327148,3.8057422 Z M16.1843359,6.2834375 L16.2041602,15.2031836 C16.2041602,15.4938867 16.1083594,15.7383529 15.9167578,15.936582 C15.7251562,16.1348112 15.490599,16.2339128 15.2130859,16.2338867 L14.9355859,16.2338867 L14.9355859,19.0089258 C14.9355859,19.2732096 14.8397786,19.5044596 14.6481641,19.7026758 C14.4565495,19.9008919 14.2219922,20 13.9444922,20 L13.3696875,20 C13.1053906,20 12.8774349,19.9008919 12.6858203,19.7026758 C12.4942057,19.5044596 12.3984049,19.2732096 12.398418,19.0089258 L12.398418,16.2338867 L8.75123047,16.2338867 L8.75123047,19.0089258 C8.75123047,19.2732096 8.65542969,19.5044596 8.46382812,19.7026758 C8.27222656,19.9008919 8.03766927,20 7.76015625,20 L7.18535156,20 C6.92106771,20 6.69311849,19.9008919 6.50150391,19.7026758 C6.30988932,19.5044596 6.21408854,19.2732096 6.21410156,19.0089258 L6.21410156,16.2338867 L5.99605469,16.2338867 C5.71855469,16.2338867 5.4839974,16.1347786 5.29238281,15.9365625 C5.10076823,15.7383464 5.00498047,15.4938802 5.00498047,15.2031641 L5.00498047,6.2834375 L16.1843555,6.2834375 L16.1843359,6.2834375 Z" id="形状" fill="#FFFFFF"></path>
                </g>
            </g>
        </g>
    </g>
</svg>