<?xml version="1.0" encoding="UTF-8"?>
<svg width="20px" height="20px" viewBox="0 0 20 20" version="1.1" xmlns="http://www.w3.org/2000/svg" xmlns:xlink="http://www.w3.org/1999/xlink">
    <!-- Generator: sketchtool 55.1 (78136) - https://sketchapp.com -->
    <title>8F3D4D47-A05A-47A6-A06E-488304C32059</title>
    <desc>Created with sketchtool.</desc>
    <g id="页面1" stroke="none" stroke-width="1" fill="none" fill-rule="evenodd">
        <g id="MT4切图" transform="translate(-1463.000000, -376.000000)" fill-rule="nonzero">
            <g id="android" transform="translate(1463.000000, 376.000000)">
                <g id="安卓">
                    <rect id="矩形" fill="#000000" opacity="0" x="0" y="0" width="20" height="20"></rect>
                    <path d="M18.3222504,6.55529213 C18.622713,6.55529213 18.8774536,6.65000568 19.0864721,6.83943279 C19.2954907,7.02885989 19.4,7.26073948 19.4,7.53507153 L19.4,13.3156812 C19.4,13.576948 19.2954907,13.8022949 19.0864721,13.991722 C18.8774536,14.1811491 18.622713,14.2758627 18.3222504,14.2758627 L17.969546,14.2758627 C17.6690834,14.2758627 17.4143428,14.1811491 17.2053243,13.991722 C16.9963057,13.8022949 16.8917964,13.576948 16.8917964,13.3156812 L16.8917964,7.53507153 C16.8917964,7.2607266 16.9963057,7.02884702 17.2053243,6.83943279 C17.4143428,6.65001855 17.6690834,6.55529213 17.969546,6.55529213 L18.3222504,6.55529213 L18.3222504,6.55529213 Z M2.43045399,6.55529213 C2.73091658,6.55529213 2.97912453,6.65000568 3.17507784,6.83943279 C3.37103114,7.02885989 3.4690078,7.26073948 3.4690078,7.53507153 L3.4690078,13.3156812 C3.4690078,13.576948 3.37103114,13.8022949 3.17507784,13.991722 C2.97912453,14.1811491 2.73091658,14.2758627 2.43045399,14.2758627 L2.07773031,14.2758627 C1.77726772,14.2758627 1.52252713,14.1811491 1.31350856,13.991722 C1.10448998,13.8022949 1,13.576948 1,13.3156812 L1,7.53507153 C1,7.2607266 1.10450929,7.02884702 1.31352786,6.83943279 C1.52254644,6.65001855 1.77728703,6.55529213 2.07774962,6.55529213 L2.43045399,6.55529213 Z M13.2470688,2.00917671 C13.4822179,2.11369887 13.7271627,2.25739753 13.9819033,2.4402727 C14.2366439,2.62314786 14.4815823,2.83869264 14.7167186,3.08690702 C14.9518548,3.33512141 15.1576038,3.6061968 15.3339657,3.9001332 C15.5103275,4.19406959 15.6376978,4.50432792 15.7160766,4.83090818 L4.58593392,4.83090818 C4.79495249,4.13853897 5.12480873,3.57027696 5.57550262,3.12612214 C6.02619651,2.68196732 6.4801535,2.32925008 6.93737359,2.06797043 L5.93801559,0.500331105 C5.91188505,0.474200565 5.90862195,0.425221893 5.92822629,0.353395088 C5.94783063,0.281568283 6.01641365,0.206446199 6.13397533,0.128028834 C6.23848462,0.0365848161 6.33646127,-0.00587409351 6.42790529,0.000652105411 C6.51934931,0.00717830433 6.57813015,0.0235131099 6.60424782,0.0496565222 L7.62324234,1.65647235 C7.98901842,1.48663671 8.37439239,1.35599688 8.77936427,1.26455286 C9.18433616,1.17310884 9.60236687,1.12738683 10.0334564,1.12738683 C10.9217789,1.12738683 11.7513142,1.31028131 12.5220621,1.67607025 L13.5606159,0.0496565222 C13.5867465,0.0235259821 13.6357316,0.0104607121 13.7075713,0.0104607121 C13.7794109,0.0104607121 13.8871898,0.0496565222 14.0309077,0.128048142 C14.1615347,0.193348748 14.2366439,0.252129591 14.2562354,0.304390671 C14.2758268,0.356651751 14.2725637,0.395847562 14.2464461,0.421978102 L13.2470688,2.00917671 Z M7.77996766,3.69438415 C7.9498033,3.69438415 8.09350196,3.63559688 8.21106364,3.51802232 C8.32862533,3.40044776 8.38741261,3.2567491 8.38742548,3.08692633 C8.38743835,2.91710357 8.32865108,2.7734049 8.21106364,2.65583034 C8.09347621,2.53825579 7.94977755,2.47946851 7.77996766,2.47946851 C7.61015776,2.47946851 7.4664591,2.53825579 7.34887167,2.65583034 C7.23128424,2.7734049 7.1725034,2.91710357 7.17252913,3.08692633 C7.17255489,3.2567491 7.23133573,3.40044776 7.34887167,3.51802232 C7.46640761,3.63559688 7.61010628,3.69438415 7.77996766,3.69438415 Z M12.6004344,3.61599254 C12.7702572,3.61599254 12.9139559,3.55721169 13.0315304,3.43965001 C13.149105,3.32208832 13.2078858,3.17838322 13.207873,3.00853471 C13.2078601,2.8386862 13.1490792,2.69498754 13.0315304,2.57743872 C12.9139816,2.45988991 12.7702829,2.40110907 12.6004344,2.40109619 C12.4305859,2.40108332 12.2868808,2.45986417 12.1693191,2.57743872 C12.0517575,2.69501328 11.9929766,2.83871194 11.9929766,3.00853471 C11.9929766,3.17835748 12.0517575,3.32206258 12.1693191,3.43965001 C12.2868808,3.55723744 12.4305859,3.61601828 12.6004344,3.61599254 Z M15.7160766,6.06540243 L15.7356745,14.8833205 C15.7356745,15.170705 15.6409673,15.4123803 15.4515531,15.6083465 C15.2621389,15.8043126 15.0302593,15.9022829 14.7559144,15.9022571 L14.4815823,15.9022571 L14.4815823,18.6456163 C14.4815823,18.906883 14.3868688,19.1354931 14.1974417,19.3314464 C14.0080145,19.5273997 13.776135,19.6253764 13.5018029,19.6253764 L12.9335602,19.6253764 C12.6722805,19.6253764 12.4469272,19.5273997 12.2575001,19.3314464 C12.068073,19.1354931 11.9733658,18.906883 11.9733787,18.6456163 L11.9733787,15.9022571 L8.36782758,15.9022571 L8.36782758,18.6456163 C8.36782758,18.906883 8.27312046,19.1354931 8.08370622,19.3314464 C7.89429199,19.5273997 7.66241241,19.6253764 7.38806748,19.6253764 L6.81982478,19.6253764 C6.55855799,19.6253764 6.33321105,19.5273997 6.14378394,19.3314464 C5.95435683,19.1354931 5.85964972,18.906883 5.85966259,18.6456163 L5.85966259,15.9022571 L5.64410494,15.9022571 C5.36977289,15.9022571 5.13789331,15.8042805 4.9484662,15.6083271 C4.75903909,15.4123738 4.66434485,15.1706985 4.66434485,14.8833012 L4.66434485,6.06540243 L15.7160959,6.06540243 L15.7160766,6.06540243 Z" id="形状" fill="#DB3823"></path>
                </g>
            </g>
        </g>
    </g>
</svg>