<?xml version="1.0" encoding="utf-8"?>
<!-- Generator: Adobe Illustrator 19.0.0, SVG Export Plug-In . SVG Version: 6.00 Build 0)  -->
<svg version="1.1" id="图层_2" xmlns="http://www.w3.org/2000/svg" xmlns:xlink="http://www.w3.org/1999/xlink" x="0px" y="0px"
	 viewBox="0 0 50 50" style="enable-background:new 0 0 50 50;" xml:space="preserve">
<style type="text/css">
	.st0{display:none;opacity:0.1;fill:#13AE67;enable-background:new    ;}
	.st1{fill:#2067a6;}
</style>
<rect id="XMLID_28_" class="st0" width="50" height="50"/>
<g id="XMLID_471_">
	<g id="XMLID_460_">
		<g id="XMLID_281_">
			<path id="XMLID_486_" class="st1" d="M28.7,31.8H10.2c-2.4,0-4.4-2-4.4-4.4V10.9c0-2.4,2-4.4,4.4-4.4h23.6c2.4,0,4.4,2,4.4,4.4
				v9.6h-1.5v-9.6c0-1.6-1.3-2.9-2.9-2.9H10.2c-1.6,0-2.9,1.3-2.9,2.9v16.5c0,1.6,1.3,2.9,2.9,2.9h18.5V31.8z"/>
		</g>
		<g id="XMLID_269_">
			<rect id="XMLID_485_" x="16.7" y="35.7" class="st1" width="10.8" height="1.5"/>
		</g>
		<g id="XMLID_271_">
			<rect id="XMLID_484_" x="6.6" y="26.2" class="st1" width="22.1" height="1.5"/>
		</g>
		<g id="XMLID_272_">
			<rect id="XMLID_483_" x="19.2" y="31" class="st1" width="1.5" height="5.8"/>
		</g>
		<g id="XMLID_273_">
			<rect id="XMLID_482_" x="23" y="31.2" class="st1" width="1.5" height="5.8"/>
		</g>
		<g id="XMLID_277_">
			<path id="XMLID_474_" class="st1" d="M21.9,29.2L21.9,29.2c-0.2,0-0.3-0.1-0.3-0.3l0,0c0-0.2,0.1-0.3,0.3-0.3l0,0
				c0.2,0,0.3,0.1,0.3,0.3l0,0C22.2,29,22.1,29.2,21.9,29.2z"/>
			<circle id="XMLID_480_" class="st1" cx="21.9" cy="28.9" r="0.6"/>
		</g>
	</g>
	<g id="XMLID_470_">
		<g id="XMLID_267_">
			<path id="XMLID_477_" class="st1" d="M41.8,41.6h-9.3c-1.7,0-3-1.3-3-3V22.8c0-1.7,1.3-3,3-3h9.3c1.7,0,3,1.3,3,3v15.9
				C44.8,40.3,43.5,41.6,41.8,41.6z M32.5,21.3c-0.8,0-1.5,0.7-1.5,1.5v15.9c0,0.8,0.7,1.5,1.5,1.5h9.3c0.8,0,1.5-0.7,1.5-1.5V22.8
				c0-0.8-0.7-1.5-1.5-1.5H32.5z"/>
		</g>
		<g id="XMLID_274_">
			<rect id="XMLID_476_" x="30.3" y="23.3" class="st1" width="13.8" height="1"/>
		</g>
		<g id="XMLID_276_">
			<rect id="XMLID_475_" x="30.3" y="36.5" class="st1" width="13.8" height="1"/>
		</g>
		<g id="XMLID_275_">
			<path id="XMLID_493_" class="st1" d="M38.5,22.6h-2.6c-0.1,0-0.2-0.1-0.2-0.2v-0.2c0-0.1,0.1-0.2,0.2-0.2h2.6
				c0.1,0,0.2,0.1,0.2,0.2v0.2C38.7,22.5,38.6,22.6,38.5,22.6z"/>
		</g>
		<g id="XMLID_278_">
			<path id="XMLID_472_" class="st1" d="M37.2,39.1L37.2,39.1c-0.2,0-0.3-0.1-0.3-0.3l0,0c0-0.2,0.1-0.3,0.3-0.3l0,0
				c0.2,0,0.3,0.1,0.3,0.3l0,0C37.5,39,37.3,39.1,37.2,39.1z"/>
			<circle id="XMLID_473_" class="st1" cx="37.2" cy="38.8" r="0.6"/>
		</g>
	</g>
</g>
</svg>
