<svg xmlns="http://www.w3.org/2000/svg" viewBox="0 0 71.99 71.99">
	<defs>
		<clipPath id="clip-path" transform="translate(0 0)">
			<rect class="cls-1" width="71.99" height="71.99"/></clipPath>
	</defs>
			<g fill="none" stroke="#1378bf" stroke-linecap="round" stroke-linejoin="round" stroke-miterlimit="10" stroke-width="2" clip-path="url(#clip-path)">
				<circle cx="31" cy="31" r="30"/>
				<rect x="58.88" y="48.99" width="4.24" height="24.01" transform="translate(-25.27 61) rotate(-45)"/>
				<polyline points="44.5 17.5 37 25 33 21 26 28 22 24 17 29"/>
				<polyline points="45 23 45 17 39 17"/>
				<line x1="28" y1="45" x2="28" y2="33"/>
				<line x1="18" y1="37" x2="18" y2="45"/>
				<line x1="23" y1="39" x2="23" y2="45"/>
				<line x1="43" y1="45" x2="43" y2="33"/>
				<line x1="38" y1="31" x2="38" y2="45"/>
				<line x1="33" y1="37" x2="33" y2="45"/>
				<path d="M49.38,49.39A25.92,25.92,0,0,0,57,31" transform="translate(0 0)"/>
				<path d="M31,5A26,26,0,0,0,5,31" transform="translate(0 0)"/>
				<path d="M43.39,53.86q1.11-.6,2.14-1.3" transform="translate(0 0)"/>
				<path d="M38.73,6.17q-1.22-.38-2.49-.64" transform="translate(0 0)"/>
			</g>
</svg>